<svg xmlns="http://www.w3.org/2000/svg" width="32" height="32" viewBox="0 0 32 32">
  <defs>
    <linearGradient id="bg-gradient" x1="0%" y1="0%" x2="100%" y2="100%">
      <stop offset="0%" stop-color="#1E1E1E"/>
      <stop offset="100%" stop-color="#121212"/>
    </linearGradient>
    <linearGradient id="accent-gradient" x1="0%" y1="0%" x2="100%" y2="100%">
      <stop offset="0%" stop-color="#4CAF50"/>
      <stop offset="100%" stop-color="#2E7D32"/>
    </linearGradient>
  </defs>
  
  <!-- Background -->
  <rect width="32" height="32" rx="6" fill="url(#bg-gradient)"/>
  
  <!-- Chart bars representing expense tracking -->
  <rect x="6" y="18" width="3" height="8" fill="url(#accent-gradient)" rx="1"/>
  <rect x="11" y="14" width="3" height="12" fill="url(#accent-gradient)" rx="1"/>
  <rect x="16" y="10" width="3" height="16" fill="url(#accent-gradient)" rx="1"/>
  <rect x="21" y="16" width="3" height="10" fill="url(#accent-gradient)" rx="1"/>
  
  <!-- AI brain/circuit element -->
  <circle cx="26" cy="8" r="2" fill="none" stroke="#2E7D32" stroke-width="1"/>
  <path d="M24 8 L22 8 M28 8 L30 8 M26 6 L26 4 M26 10 L26 12" stroke="#2E7D32" stroke-width="1"/>
  
  <!-- Small connecting lines for AI theme -->
  <path d="M24 6 L22 4 M28 6 L30 4 M24 10 L22 12 M28 10 L30 12" stroke="#2E7D32" stroke-width="0.5" opacity="0.7"/>
</svg>
